<svg id="svg2" xmlns="http://www.w3.org/2000/svg" xmlns:xlink="http://www.w3.org/1999/xlink" viewBox="0 0 128 128"><defs><style>.cls-1{fill:url(#linear-gradient);}.cls-2{fill:url(#linear-gradient-2);}.cls-3{fill:#011e3f;}.cls-4{fill:#275282;}.cls-5{fill:url(#linear-gradient-3);}.cls-6{opacity:0.07;}.cls-6,.cls-8,.cls-9{isolation:isolate;}.cls-7{fill:url(#linear-gradient-4);}.cls-8{fill:#fff;opacity:0.09;}.cls-9{opacity:0.21;}</style><linearGradient id="linear-gradient" x1="366.59" y1="123.31" x2="366.59" y2="1.5" gradientTransform="translate(-302.59 -0.6)" gradientUnits="userSpaceOnUse"><stop offset="0" stop-color="#a20000"/><stop offset="1" stop-color="#f70000"/></linearGradient><linearGradient id="linear-gradient-2" x1="383.33" y1="78.24" x2="378.21" y2="59.14" gradientTransform="translate(-334.33 -18.5)" gradientUnits="userSpaceOnUse"><stop offset="0" stop-color="#010a14"/><stop offset="1" stop-color="#275282"/></linearGradient><linearGradient id="linear-gradient-3" x1="369.82" y1="81.16" x2="369.82" y2="36.71" gradientTransform="translate(-305.87 -6.27)" gradientUnits="userSpaceOnUse"><stop offset="0" stop-color="#275282"/><stop offset="1" stop-color="#9cc4f0"/></linearGradient><linearGradient id="linear-gradient-4" x1="383.36" y1="78.42" x2="378.24" y2="59.32" gradientTransform="translate(-301.59 0.4)" xlink:href="#linear-gradient-2"/></defs><circle id="circle1530" class="cls-1" cx="64" cy="64" r="64"/><path id="path1576" class="cls-2" d="M64,30.3a3.74,3.74,0,0,0-1.8.5L29.5,49.6a3.72,3.72,0,0,0-1.8,3V64a3.54,3.54,0,0,0,3.5,3.5,3.37,3.37,0,0,0,1.7-.5L60.4,51.1v3.3l-31,17.9a3.52,3.52,0,0,0,3.5,6.1h0L65.6,59.5a3.72,3.72,0,0,0,1.8-3V45.1a3.54,3.54,0,0,0-3.5-3.5,3.37,3.37,0,0,0-1.7.5L34.8,57.9V54.6l31-17.9a3.57,3.57,0,0,0,1.3-4.8h0A3.7,3.7,0,0,0,64,30.3Z"/><path id="path1540" class="cls-3" d="M63.9,52.9a3.37,3.37,0,0,0-1.7.5L29.5,72.3a3.57,3.57,0,0,0-1.3,4.8,3.25,3.25,0,0,0,1.3,1.3L62.2,97.3a3.63,3.63,0,0,0,3.5,0L98.4,78.4a3.57,3.57,0,0,0,1.3-4.8,3.25,3.25,0,0,0-1.3-1.3L65.7,53.4A3.45,3.45,0,0,0,63.9,52.9Z"/><path id="path1542" class="cls-4" d="M63.9,41.6a3.37,3.37,0,0,0-1.7.5L29.5,61a3.57,3.57,0,0,0-1.3,4.8,3.25,3.25,0,0,0,1.3,1.3L62.2,86a3.63,3.63,0,0,0,3.5,0L98.5,67a3.57,3.57,0,0,0,1.3-4.8,3.25,3.25,0,0,0-1.3-1.3L65.7,42.1A3.45,3.45,0,0,0,63.9,41.6Z"/><path id="path1544" class="cls-5" d="M63.9,30.3a3.37,3.37,0,0,0-1.7.5L29.5,49.6a3.56,3.56,0,0,0,0,6.1L62.2,74.6a3.63,3.63,0,0,0,3.5,0L98.4,55.7a3.56,3.56,0,0,0,0-6.1L65.7,30.7A3.42,3.42,0,0,0,63.9,30.3Z"/><path id="path1546" class="cls-6" d="M27.9,63.3a3.41,3.41,0,0,0,1.7,3.8L62.2,86a3.63,3.63,0,0,0,3.5,0L98.4,67.1a3.55,3.55,0,0,0,1.7-3.8,3.37,3.37,0,0,1-1.7,2.2l-32.7,19a3.63,3.63,0,0,1-3.5,0L29.5,65.6A3.64,3.64,0,0,1,27.9,63.3Z"/><path id="path1548" class="cls-6" d="M27.9,74.7a3.41,3.41,0,0,0,1.7,3.8L62.3,97.4a3.63,3.63,0,0,0,3.5,0L98.5,78.5a3.55,3.55,0,0,0,1.7-3.8,3.37,3.37,0,0,1-1.7,2.2L65.7,95.8a3.63,3.63,0,0,1-3.5,0L29.5,76.9A3.23,3.23,0,0,1,27.9,74.7Z"/><path id="path1552" class="cls-6" d="M27.9,51.9a3.41,3.41,0,0,0,1.7,3.8L62.3,74.6a3.63,3.63,0,0,0,3.5,0L98.5,55.7a3.55,3.55,0,0,0,1.7-3.8,3.37,3.37,0,0,1-1.7,2.2L65.7,73a3.63,3.63,0,0,1-3.5,0L29.5,54.1A3.23,3.23,0,0,1,27.9,51.9Z"/><path id="path1572" class="cls-7" d="M96.8,49.4a3.74,3.74,0,0,0-1.8.5L62.3,68.7a3.72,3.72,0,0,0-1.8,3V83A3.54,3.54,0,0,0,64,86.5a3.37,3.37,0,0,0,1.7-.5L93.2,70.1v3.3l-31,17.9a3.52,3.52,0,0,0,3.5,6.1h0L98.4,78.5a3.72,3.72,0,0,0,1.8-3V64.2a3.54,3.54,0,0,0-3.5-3.5,3.37,3.37,0,0,0-1.7.5L67.5,77V73.7l31-17.9A3.57,3.57,0,0,0,99.8,51h0A3.66,3.66,0,0,0,96.8,49.4Z"/><path id="path1578" class="cls-8" d="M96.8,49.2a3.74,3.74,0,0,0-1.8.5L62.3,68.5a3.72,3.72,0,0,0-1.8,3V72a3.49,3.49,0,0,1,1.8-3L95,50.2a3.74,3.74,0,0,1,1.8-.5,3.49,3.49,0,0,1,3,1.8,4.42,4.42,0,0,1,.5,1.5,2.88,2.88,0,0,0-.5-2A3.41,3.41,0,0,0,96.8,49.2Zm-.1,11.3A3.37,3.37,0,0,0,95,61L67.5,76.8v.5L95,61.5a3.48,3.48,0,0,1,4.8,1.3,3.37,3.37,0,0,1,.5,1.7V64a3.63,3.63,0,0,0-3.6-3.5ZM93.2,73.3l-31,17.9a3.48,3.48,0,0,0-1.7,3.3,3.51,3.51,0,0,1,1.7-2.8l31-17.9Z"/><path id="path1589" class="cls-9" d="M100.2,52.4a3.51,3.51,0,0,1-1.7,2.8l-31,17.9v.5l31-17.9A3.68,3.68,0,0,0,100.2,52.4Zm-7,17.1L65.8,85.4A3.48,3.48,0,0,1,61,84.1a3.37,3.37,0,0,1-.5-1.7v.5A3.54,3.54,0,0,0,64,86.4a3.37,3.37,0,0,0,1.7-.5L93.2,70Zm7,5.4a3.49,3.49,0,0,1-1.8,3L65.8,96.7A3.48,3.48,0,0,1,61,95.4h0a4.42,4.42,0,0,1-.5-1.5,2.88,2.88,0,0,0,.5,2,3.57,3.57,0,0,0,4.8,1.3h0L98.5,78.3a3.72,3.72,0,0,0,1.8-3v-.4Z"/></svg>